<svg xmlns="http://www.w3.org/2000/svg" xmlns:xlink="http://www.w3.org/1999/xlink" version="1.1" id="Layer_1" x="0px" y="0px" width="100px" height="100px" viewBox="0 0 100 100" enable-background="new 0 0 100 100" xml:space="preserve">
<g>
	<path d="M93.215,27.063l-6.91-6.909c-0.692-0.692-1.814-0.563-2.506,0.129L59.212,45H41.188L16.6,20.283   c-0.665-0.665-1.842-0.729-2.506-0.064l-6.909,6.877c-0.692,0.692-0.898,1.798-0.206,2.49L31,53.797v32.597   C31,87.373,32.206,88,33.185,88h33.676C67.84,88,69,87.373,69,86.394V54.151L93.399,29.57c0.332-0.332,0.428-0.783,0.428-1.253   S93.548,27.396,93.215,27.063z"/>
	<path d="M50.068,40.216c7.537,0,13.669-6.132,13.669-13.669s-6.132-13.669-13.669-13.669s-13.669,6.132-13.669,13.669   S42.531,40.216,50.068,40.216z"/>
</g>
</svg>