<?xml version="1.0" encoding="utf-8"?>
<!-- Generator: Adobe Illustrator 16.0.0, SVG Export Plug-In . SVG Version: 6.00 Build 0)  -->
<!DOCTYPE svg PUBLIC "-//W3C//DTD SVG 1.1//EN" "http://www.w3.org/Graphics/SVG/1.1/DTD/svg11.dtd">
<svg version="1.1" id="Layer_1" xmlns="http://www.w3.org/2000/svg" xmlns:xlink="http://www.w3.org/1999/xlink" x="0px" y="0px"
	 width="100px" height="100px" viewBox="0 0 100 100" enable-background="new 0 0 100 100" xml:space="preserve">
<g>
	<path fill="#FF7711" d="M93.215,27.063l-6.91-6.909c-0.691-0.692-1.813-0.563-2.506,0.129L59.212,45H41.188L16.6,20.283
		c-0.665-0.665-1.842-0.729-2.506-0.064l-6.909,6.877c-0.692,0.692-0.898,1.798-0.206,2.49L31,53.797v32.598
		C31,87.373,32.206,88,33.185,88h33.676C67.84,88,69,87.373,69,86.395V54.15L93.398,29.57c0.332-0.332,0.429-0.783,0.429-1.253
		C93.827,27.847,93.548,27.396,93.215,27.063z"/>
	<path fill="#FF7711" d="M50.068,40.216c7.538,0,13.668-6.132,13.668-13.669s-6.131-13.669-13.668-13.669
		c-7.537,0-13.669,6.132-13.669,13.669S42.531,40.216,50.068,40.216z"/>
</g>
</svg>
