<?xml version="1.0" encoding="utf-8"?>
<!-- Generator: Adobe Illustrator 16.0.0, SVG Export Plug-In . SVG Version: 6.00 Build 0)  -->
<!DOCTYPE svg PUBLIC "-//W3C//DTD SVG 1.1//EN" "http://www.w3.org/Graphics/SVG/1.1/DTD/svg11.dtd">
<svg version="1.1" id="Layer_1" xmlns="http://www.w3.org/2000/svg" xmlns:xlink="http://www.w3.org/1999/xlink" x="0px" y="0px"
	 width="1000px" height="1000px" viewBox="0 0 1000 1000" enable-background="new 0 0 1000 1000" xml:space="preserve">
<g id="Logo">
	<g>
		<g>
			<path d="M750,644c0,16.568-13.432,30-30,30H280c-16.568,0-30-13.432-30-30V204c0-16.568,13.432-30,30-30h440
				c16.568,0,30,13.432,30,30V644z"/>
		</g>
		<g>
			<path fill="#FF7711" d="M750,639c0,16.568-13.432,30-30,30H280c-16.568,0-30-13.432-30-30V199c0-16.568,13.432-30,30-30h440
				c16.568,0,30,13.432,30,30V639z"/>
		</g>
	</g>
	<path fill="#FFFFFF" d="M607.201,311.071l-4.764,4.764c-0.018-0.018-0.035-0.035-0.052-0.053l-60.56,60.562
		c12.132,12.132,18.813,28.263,18.813,45.42c0,0.001,0,0.001,0,0.002c0,1.021-0.026,2.037-0.074,3.05
		c-0.004,0.07-0.005,0.143-0.008,0.213c-0.046,0.924-0.118,1.841-0.202,2.757c-0.018,0.176-0.029,0.353-0.047,0.527
		c-0.081,0.798-0.183,1.589-0.293,2.38c-0.057,0.404-0.115,0.808-0.179,1.21c-0.086,0.551-0.184,1.098-0.284,1.644
		c-0.146,0.781-0.305,1.556-0.478,2.326c-0.037,0.162-0.071,0.324-0.108,0.485c-6.627,28.412-32.162,49.641-62.562,49.641
		c-35.419,0-64.235-28.815-64.235-64.234c0-27.107,16.879-50.348,40.679-59.761c12.508-4.682,28.001-6.114,44.742-1.509
		l43.537-43.537l-43.537-43.537l-0.209,0.209l-0.002-0.468c-39.638-5.628-79.094,4.517-111.101,28.564s-52.734,59.121-58.362,98.758
		l0.123,0.018c-0.992,6.948-1.516,14.045-1.516,21.263c0,82.645,67.237,149.88,149.881,149.88
		c41.322,0,78.792-16.807,105.932-43.947l0.051,0.051c26.468-26.47,41.814-61.096,43.698-98.209
		c0.001-0.026,0.003-0.054,0.004-0.081c0.057-1.116,0.098-2.234,0.128-3.355c0.006-0.169,0.015-0.337,0.019-0.507
		c0.033-1.269,0.049-2.541,0.05-3.815c0-0.005,0-0.011,0-0.016l0,0c0,0,0,0,0-0.001c0-8.93-0.781-17.738-2.301-26.353l23.777-23.777
		h0.001v-60.562H607.201z"/>
	<linearGradient id="SVGID_1_" gradientUnits="userSpaceOnUse" x1="500.0005" y1="453.5039" x2="500.0005" y2="169">
		<stop  offset="0" style="stop-color:#FFFFFF;stop-opacity:0.5"/>
		<stop  offset="1" style="stop-color:#FFFFFF;stop-opacity:0"/>
	</linearGradient>
	<path fill="url(#SVGID_1_)" d="M720,169H280c-16.568,0-30,13.432-30,30v186.438c61.418,41.596,153.808,68.066,257.144,68.066
		c95.606,0,181.848-22.656,242.856-58.987V199C750,182.432,736.568,169,720,169z"/>
</g>
<g id="Title">
	<path fill="#FFFFFF" d="M305.348,767.758v42.48c0,5.534,1.627,9.604,4.883,12.207c3.255,2.604,7.324,3.906,12.207,3.906
		s8.952-1.302,12.207-3.906c3.255-2.604,4.883-6.673,4.883-12.207v-42.48h14.648v46.387c0,7.487-3.011,13.835-9.033,19.043
		c-6.022,5.209-13.591,7.813-22.705,7.813c-9.115,0-16.683-2.604-22.705-7.813c-6.022-5.208-9.033-11.556-9.033-19.043v-46.387
		H305.348z"/>
	<path fill="#FFFFFF" d="M445.313,767.758v13.672h-24.414V841H406.25v-59.57h-24.414v-13.672H445.313z"/>
	<path fill="#FFFFFF" d="M560.233,841l29.297-73.242h14.648l29.248,73.193L617.851,841l-4.395-11.23h-33.203L575.858,841H560.233z
		 M597.245,787.289l-11.133,27.832h21.973L597.245,787.289z"/>
	<path fill="#FFFFFF" d="M660.524,841v-73.242h4.883l31.738,36.133l31.787-36.133h4.883V841h-14.648l-0.049-42.48l-21.973,24.414
		l-21.973-24.414V841H660.524z"/>
	<path fill="#FFFFFF" d="M767.069,841v-73.193l53.809-0.049v13.672h-39.16v15.625h29.346v13.623h-29.346v16.65h39.063V841H767.069z"
		/>
	<path fill="#FFFFFF" d="M251.866,778.256l-10.031,10.03c3.912,4.35,5.88,9.71,5.88,16.093c0,6.511-2.035,11.963-6.104,16.357
		c-4.069,4.395-9.343,6.592-15.82,6.592c-6.543,0-11.849-2.197-15.918-6.592c-4.069-4.395-6.104-9.847-6.104-16.357
		c0-6.51,2.034-11.963,6.104-16.357c4.069-4.395,11.938-8.646,23.658-5.514l6.839-6.84l-7.161-7.16
		c-15.398-2.57-26.592,2.75-33.591,9.748c-6.999,6.999-10.498,15.707-10.498,26.123c0,10.385,3.499,19.084,10.498,26.099
		c6.999,7.016,15.706,10.522,26.123,10.522c10.417,0,19.124-3.499,26.123-10.498c6.999-6.998,10.498-15.706,10.498-26.123
		C262.364,793.963,258.865,785.255,251.866,778.256z"/>
	<path fill="#FFFFFF" d="M530.921,779.302c-0.323-0.354-0.653-0.702-0.996-1.046c-2.46-2.459-5.135-4.477-8.016-6.071l-19.659,19.55
		v8.95h8.95v-0.015l0.001,0.001l10.323-10.323c2.816,3.949,4.249,8.618,4.249,14.031c0,6.511-2.035,11.963-6.104,16.357
		c-4.069,4.395-9.343,6.592-15.82,6.592c-6.543,0-11.849-2.197-15.918-6.592c-4.069-4.395-6.104-9.847-6.104-16.357
		c0-6.51,2.034-11.963,6.104-16.357c4.069-4.395,9.342-6.592,15.82-6.592c0.017,0,0.032,0.002,0.049,0.002v-13.674
		c-10.417,0-19.125,3.5-26.123,10.498c-6.999,6.999-10.498,15.707-10.498,26.123c0,10.385,3.499,19.084,10.498,26.099
		c6.999,7.016,15.706,10.522,26.123,10.522c10.416,0,19.124-3.499,26.123-10.498c6.998-6.998,10.498-15.706,10.498-26.123
		C540.422,794.474,537.25,786.116,530.921,779.302z"/>
</g>
</svg>
