<?xml version="1.0" encoding="utf-8"?>
<!-- Generator: Adobe Illustrator 16.0.0, SVG Export Plug-In . SVG Version: 6.00 Build 0)  -->
<!DOCTYPE svg PUBLIC "-//W3C//DTD SVG 1.1//EN" "http://www.w3.org/Graphics/SVG/1.1/DTD/svg11.dtd">
<svg version="1.1" id="Layer_1" xmlns="http://www.w3.org/2000/svg" xmlns:xlink="http://www.w3.org/1999/xlink" x="0px" y="0px"
	 width="50.938px" height="100px" viewBox="0 0 50.938 100" enable-background="new 0 0 50.938 100" xml:space="preserve">
<path fill="#1A1A1A" d="M43.101,0H7.837C3.509,0,0,3.508,0,7.836v84.327C0,96.491,3.509,100,7.837,100h35.264
	c4.328,0,7.837-3.509,7.837-7.837V7.836C50.938,3.508,47.429,0,43.101,0z M21.615,8.315h7.708c0.575,0,1.043,0.467,1.043,1.044
	c0,0.576-0.468,1.043-1.043,1.043h-7.708c-0.577,0-1.045-0.467-1.045-1.043C20.571,8.782,21.038,8.315,21.615,8.315z M17.123,7.915
	c0.687,0,1.244,0.557,1.244,1.244s-0.558,1.244-1.244,1.244c-0.688,0-1.244-0.557-1.244-1.244S16.437,7.915,17.123,7.915z
	 M25.469,95.771c-2.705,0-4.898-2.191-4.898-4.896c0-2.706,2.193-4.898,4.898-4.898s4.897,2.192,4.897,4.898
	C30.366,93.58,28.174,95.771,25.469,95.771z M47.019,82.489h-43.1V17.511h43.1V82.489z"/>
</svg>
